<svg xmlns="http://www.w3.org/2000/svg" viewBox="0 0 602.52 258.62"><defs><style>.cls-1{isolation:isolate;}.cls-2,.cls-4{fill:#cecece;}.cls-3,.cls-5{fill:#e4e3e1;}.cls-4{opacity:0.44;}.cls-4,.cls-6{mix-blend-mode:multiply;}.cls-5{opacity:0.35;mix-blend-mode:screen;}.cls-10,.cls-6{fill:#332e32;}.cls-6{opacity:0.28;}.cls-7{fill:#c60;}.cls-8{fill:#231f22;}.cls-9{fill:#d0d0cb;}.cls-11{fill:#3f3b3e;}.cls-12{fill:#300901;}.cls-13{fill:#68470c;}.cls-14{fill:#cb6828;}.cls-15{fill:none;}.cls-16{fill:#fff;}</style></defs><title>fedders-logo-barn</title><g class="cls-1"><g id="Text"><path class="cls-2" d="M335.83,98.37l0,.13a14.05,14.05,0,0,0-.45,2.61c0,.1,0,.2,0,.31v.09c0,.1,0,.21,0,.31s0,.24,0,.36v78.1h-3V99.45h0l2.75-.84Z"/><path class="cls-3" d="M335.83,98.37l0,.13a14.13,14.13,0,0,0-.49,3.69h0l-3-2.68,0-.08Z"/><path class="cls-4" d="M335.83,98.37l0,.13a14.05,14.05,0,0,0-.45,2.61c0,.1,0,.2,0,.31v.09c0,.1,0,.21,0,.31s0,.24,0,.36v78.1h-.72v-78.1c0-.21,0-.42,0-.63a13.12,13.12,0,0,1,.47-3Z"/><rect class="cls-2" x="335.33" y="102.19" width="28.27" height="78.1"/><rect class="cls-4" x="335.33" y="102.19" width="28.27" height="1.01"/><path class="cls-3" d="M349.46,89.07c-7.81,0-14.13,5.32-14.13,13.12H363.6C363.6,94.39,357.27,89.07,349.46,89.07Z"/><path class="cls-5" d="M345.8,89.49a29,29,0,0,0-2.83,12.7v78.1h-4v-78.1A14.77,14.77,0,0,1,345.8,89.49Z"/><path class="cls-6" d="M353.84,145.64h-1.51V132.58h2.26L343,124.26l-4-2.89-1.16-.83H332.3v59.75h31.3v-29Z"/><polygon class="cls-7" points="309.85 158.06 309.85 189.44 273.7 189.31 273.57 189.31 237.43 189.44 237.43 158.06 257.76 145.76 257.76 131.33 271.28 123.24 273.64 121.83 289.51 131.33 289.51 145.76 309.85 158.06"/><rect class="cls-7" x="309.85" y="157.94" width="60.25" height="31.5"/><rect class="cls-6" x="309.85" y="157.94" width="60.25" height="3.89"/><rect class="cls-7" x="289.51" y="131.33" width="60.25" height="14.43"/><rect class="cls-6" x="289.51" y="131.33" width="60.25" height="4.64"/><polygon class="cls-8" points="237.43 158.06 257.76 145.76 257.76 143.75 233.79 158.44 237.43 160.32 237.43 158.06"/><polygon class="cls-9" points="257.76 143.75 257.76 145.51 235.34 159.24 233.79 158.44 257.76 143.75"/><polygon class="cls-10" points="257.76 131.33 272.2 122.69 270.19 121.29 253.37 131.83 257.76 131.83 257.76 131.33"/><polygon class="cls-6" points="289.51 131.33 289.51 135.92 289.39 135.97 271.28 123.24 273.64 121.83 289.51 131.33"/><polygon class="cls-11" points="270.19 121.29 271.05 120.54 335.21 120.54 352.03 132.59 286.5 132.59 270.19 121.29"/><polygon class="cls-9" points="288.26 132.59 271.05 120.54 253.37 131.83 255.17 131.83 271.05 121.88 271.05 121.88 286.5 132.59 288.26 132.59"/><polygon class="cls-6" points="309.85 158.06 309.85 161.75 286.63 147.02 286.88 145.76 289.51 145.76 309.85 158.06"/><polygon class="cls-10" points="306.83 157.94 372.61 157.94 351.27 145.64 286.75 145.64 306.83 157.94"/><polygon class="cls-9" points="308.84 157.94 306.83 157.94 286.75 145.64 288.76 145.64 308.84 157.94"/><rect class="cls-9" x="264.97" y="174.47" width="8.45" height="14.84"/><rect class="cls-12" x="264.97" y="175.35" width="8.45" height="13.96"/><rect class="cls-6" x="264.97" y="174.98" width="8.45" height="0.37"/><rect class="cls-9" x="273.39" y="174.47" width="8.45" height="14.84"/><rect class="cls-13" x="274.18" y="175.27" width="6.85" height="13.23"/><polygon class="cls-9" points="281.83 189.19 281.83 189.31 281.38 189.31 277.61 182.16 273.84 189.31 273.38 189.31 273.38 189.19 277.35 181.67 273.55 174.47 274.07 174.47 277.61 181.18 281.15 174.47 281.67 174.47 277.87 181.67 281.83 189.19"/><polygon class="cls-6" points="266.49 155.47 266.19 155.47 262.11 155.47 261.82 155.47 261.72 155.47 261.72 163.93 261.72 164 261.98 164 266.32 164 266.58 164 266.58 163.93 266.58 155.47 266.49 155.47"/><rect class="cls-9" x="262.25" y="154.94" width="4.86" height="8.53"/><rect class="cls-13" x="262.71" y="155.4" width="3.94" height="7.61"/><polygon class="cls-9" points="267.11 163.41 267.11 163.47 266.85 163.47 264.68 159.36 262.51 163.47 262.25 163.47 262.25 163.4 264.53 159.08 262.34 154.94 262.64 154.94 264.68 158.8 266.71 154.94 267.01 154.94 264.83 159.08 267.11 163.41"/><polygon class="cls-6" points="275.33 155.47 275.03 155.47 270.96 155.47 270.66 155.47 270.56 155.47 270.56 163.93 270.56 164 270.82 164 275.16 164 275.42 164 275.42 163.93 275.42 155.47 275.33 155.47"/><rect class="cls-9" x="271.09" y="154.94" width="4.86" height="8.53"/><rect class="cls-13" x="271.55" y="155.4" width="3.94" height="7.61"/><polygon class="cls-9" points="275.95 163.41 275.95 163.47 275.69 163.47 273.52 159.36 271.35 163.47 271.09 163.47 271.09 163.4 273.37 159.08 271.19 154.94 271.48 154.94 273.52 158.8 275.56 154.94 275.85 154.94 273.67 159.08 275.95 163.41"/><polygon class="cls-6" points="283.54 155.47 283.24 155.47 279.17 155.47 278.87 155.47 278.78 155.47 278.78 163.93 278.78 164 279.04 164 283.37 164 283.63 164 283.63 163.93 283.63 155.47 283.54 155.47"/><rect class="cls-9" x="279.3" y="154.94" width="4.86" height="8.53"/><rect class="cls-13" x="279.76" y="155.4" width="3.94" height="7.61"/><polygon class="cls-9" points="284.16 163.41 284.16 163.47 283.9 163.47 281.73 159.36 279.56 163.47 279.3 163.47 279.3 163.4 281.58 159.08 279.4 154.94 279.69 154.94 281.73 158.8 283.77 154.94 284.06 154.94 281.88 159.08 284.16 163.41"/><polygon class="cls-6" points="299.71 136.06 300.01 136.06 304.08 136.06 304.38 136.06 304.48 136.06 304.48 144.53 304.48 144.6 304.22 144.6 299.88 144.6 299.62 144.6 299.62 144.53 299.62 136.06 299.71 136.06"/><rect class="cls-9" x="299.09" y="135.54" width="4.86" height="8.53"/><rect class="cls-13" x="299.55" y="136" width="3.94" height="7.61" transform="translate(603.04 279.61) rotate(180)"/><polygon class="cls-9" points="299.09 144.01 299.09 144.07 299.35 144.07 301.52 139.96 303.69 144.07 303.95 144.07 303.95 144 301.67 139.68 303.86 135.54 303.56 135.54 301.52 139.4 299.48 135.54 299.19 135.54 301.37 139.68 299.09 144.01"/><polygon class="cls-6" points="320.58 136.06 320.87 136.06 324.95 136.06 325.25 136.06 325.34 136.06 325.34 144.53 325.34 144.6 325.08 144.6 320.74 144.6 320.48 144.6 320.48 144.53 320.48 136.06 320.58 136.06"/><rect class="cls-9" x="319.96" y="135.54" width="4.86" height="8.53"/><rect class="cls-13" x="320.42" y="136" width="3.94" height="7.61" transform="translate(644.77 279.61) rotate(180)"/><polygon class="cls-9" points="319.96 144.01 319.96 144.07 320.22 144.07 322.38 139.96 324.55 144.07 324.81 144.07 324.81 144 322.53 139.68 324.72 135.54 324.42 135.54 322.38 139.4 320.35 135.54 320.05 135.54 322.24 139.68 319.96 144.01"/><polygon class="cls-6" points="339.43 136.06 339.73 136.06 343.8 136.06 344.1 136.06 344.19 136.06 344.19 144.53 344.19 144.6 343.93 144.6 339.59 144.6 339.33 144.6 339.33 144.53 339.33 136.06 339.43 136.06"/><rect class="cls-9" x="338.81" y="135.54" width="4.86" height="8.53"/><rect class="cls-13" x="339.27" y="136" width="3.94" height="7.61" transform="translate(682.47 279.61) rotate(180)"/><polygon class="cls-9" points="338.81 144.01 338.81 144.07 339.07 144.07 341.24 139.96 343.4 144.07 343.67 144.07 343.67 144 341.38 139.68 343.57 135.54 343.27 135.54 341.24 139.4 339.2 135.54 338.9 135.54 341.09 139.68 338.81 144.01"/><rect class="cls-6" x="318.92" y="175.18" width="4.83" height="7.01"/><rect class="cls-9" x="318.25" y="174.52" width="4.83" height="7.01" transform="translate(641.33 356.05) rotate(180)"/><rect class="cls-12" x="318.8" y="175.02" width="3.73" height="6" transform="translate(641.33 356.04) rotate(180)"/><rect class="cls-6" x="284.03" y="175.18" width="4.83" height="7.01"/><rect class="cls-9" x="284.69" y="174.52" width="4.83" height="7.01"/><rect class="cls-12" x="285.24" y="175.02" width="3.73" height="6"/><rect class="cls-6" x="265.73" y="136.2" width="4.83" height="7.01"/><rect class="cls-9" x="266.39" y="135.54" width="4.83" height="7.01"/><rect class="cls-12" x="266.94" y="136.04" width="3.73" height="6"/><rect class="cls-6" x="274.88" y="136.2" width="4.83" height="7.01"/><rect class="cls-9" x="275.54" y="135.54" width="4.83" height="7.01"/><rect class="cls-12" x="276.09" y="136.04" width="3.73" height="6"/><rect class="cls-6" x="333.93" y="175.18" width="4.83" height="7.01"/><rect class="cls-9" x="333.26" y="174.52" width="4.83" height="7.01" transform="translate(671.35 356.05) rotate(180)"/><rect class="cls-12" x="333.81" y="175.02" width="3.73" height="6" transform="translate(671.35 356.04) rotate(180)"/><rect class="cls-6" x="346.92" y="175.18" width="4.83" height="7.01"/><rect class="cls-9" x="346.26" y="174.52" width="4.83" height="7.01" transform="translate(697.34 356.05) rotate(180)"/><rect class="cls-12" x="346.8" y="175.02" width="3.73" height="6" transform="translate(697.34 356.04) rotate(180)"/><rect class="cls-6" x="358.45" y="175.18" width="4.83" height="7.01"/><rect class="cls-9" x="357.79" y="174.52" width="4.83" height="7.01" transform="translate(720.4 356.05) rotate(180)"/><rect class="cls-12" x="358.33" y="175.02" width="3.73" height="6" transform="translate(720.4 356.04) rotate(180)"/><rect class="cls-6" x="255.84" y="175.18" width="4.83" height="7.01"/><rect class="cls-9" x="256.51" y="174.52" width="4.83" height="7.01"/><rect class="cls-12" x="259.06" y="177.45" width="1.73" height="3.57"/><rect class="cls-12" x="257.05" y="177.45" width="1.55" height="3.57"/><rect class="cls-12" x="257.05" y="175.02" width="3.73" height="2.07"/><rect class="cls-10" x="255.45" y="174.47" width="8.81" height="14.84"/><rect class="cls-6" x="263.9" y="174.47" width="0.37" height="14.84"/><rect class="cls-10" x="256.25" y="175.27" width="6.85" height="13.23"/><polygon class="cls-10" points="263.9 189.19 263.9 189.31 263.44 189.31 259.67 182.16 255.9 189.31 255.45 189.31 255.45 189.19 259.42 181.67 255.61 174.47 256.13 174.47 259.67 181.18 263.21 174.47 263.73 174.47 259.93 181.67 263.9 189.19"/><rect class="cls-9" x="256.18" y="174.47" width="8.81" height="14.84"/><rect class="cls-6" x="264.63" y="174.47" width="0.37" height="14.84"/><rect class="cls-13" x="256.98" y="175.27" width="6.85" height="13.23"/><polygon class="cls-9" points="264.63 189.19 264.63 189.31 264.17 189.31 260.4 182.16 256.63 189.31 256.18 189.31 256.18 189.19 260.15 181.67 256.35 174.47 256.86 174.47 260.4 181.18 263.95 174.47 264.46 174.47 260.66 181.67 264.63 189.19"/><rect class="cls-6" x="309.85" y="166.56" width="60.25" height="1.46"/><rect class="cls-9" x="309.85" y="166.56" width="60.25" height="0.92"/><rect class="cls-6" x="309.85" y="166.56" width="60.25" height="0.92"/><path class="cls-10" d="M372.93,191.45H231.09a.46.46,0,0,1-.46-.46h0a.46.46,0,0,1,.46-.46H372.93a.46.46,0,0,1,.46.46h0A.46.46,0,0,1,372.93,191.45Z"/><path class="cls-10" d="M235.48,192.55h43.93a.46.46,0,0,1,.46.46h0a.46.46,0,0,1-.46.46H235.48A.46.46,0,0,1,235,193h0A.46.46,0,0,1,235.48,192.55Z"/><path class="cls-10" d="M284.71,192.55h38.07a.46.46,0,0,1,.46.46h0a.46.46,0,0,1-.46.46H284.71a.46.46,0,0,1-.46-.46h0A.46.46,0,0,1,284.71,192.55Z"/><path class="cls-10" d="M377.78,193h0a.46.46,0,0,1-.46.46H328.09a.46.46,0,0,1-.46-.46h0a.46.46,0,0,1,.46-.46h49.23A.46.46,0,0,1,377.78,193Z"/><path class="cls-10" d="M229.08,194.56h64.24a.46.46,0,0,1,.46.46h0a.46.46,0,0,1-.46.46H229.08a.46.46,0,0,1-.46-.46h0A.46.46,0,0,1,229.08,194.56Z"/><path class="cls-10" d="M371.38,195h0a.46.46,0,0,1-.46.46H298.62a.46.46,0,0,1-.46-.46h0a.46.46,0,0,1,.46-.46h72.29A.46.46,0,0,1,371.38,195Z"/><path class="cls-10" d="M376.91,198.25h0c0,.25-.42.46-.94.46H228.2c-.52,0-.94-.2-.94-.46h0c0-.25.42-.46.94-.46H376C376.49,197.79,376.91,198,376.91,198.25Z"/><path class="cls-14" d="M179.54,97.28l-3.27.16-9.59.59-9.61.59-9.19.71-8.77.83-8.6.95-8.41,1.07-4,.48-3.75.58-7.58,1.3-3.37.71L100,106l-3.38.71-2.95.7-3,.82L88,109l-2.54.87v.06l-2.58.94-2.36.93-2.12.92-1.91,1L74,115.25l-.56.43,0,.12-1.52,1.12-1.41,1.4-.45.58L69.55,120,69,121.24l-.33,1.08-.17,1.18v44.66l.45-.44,0,0,1.45-1.23,0,0,1.7-1.26.11-.05,2-1.06,2.16-1.28h.27l1.92-.93.05,0,2.43-1h0l2.63-1h0l2.6-.83,2.87-1,.08,0,3.17-.71,3-.83h0l3.43-.84h0l3.43-.71h0l3.61-.6,7.41-1.3,4-.6,4-.6,8.44-1,8.62-1,9-.84,9.23-.71,9.43-.72,9.63-.47,5.16-.25a121.88,121.88,0,0,1-1.53-49.67Z"/><polygon class="cls-14" points="157.08 152.27 147.89 152.99 139.1 153.81 130.52 154.77 122.11 155.84 118.14 156.31 114.38 156.89 106.81 158.19 103.43 158.91 96.65 160.33 93.7 161.03 90.73 161.85 87.97 162.67 85.36 163.56 85.37 163.63 82.85 164.43 80.51 165.47 80.52 165.46 78.38 166.39 76.47 167.41 73.97 168.9 73.4 169.32 73.44 169.44 71.92 170.56 70.51 171.96 69.97 172.67 69.56 173.66 69.55 173.69 68.99 174.89 68.66 175.97 68.49 177.16 68.49 182.13 68.54 182.25 69.27 183.35 69.89 183.72 70.44 184.04 71.36 184.48 71.35 184.51 72.19 184.76 72.12 184.74 73.03 185.01 73.06 184.96 74.42 185.31 75.54 185.53 77.07 185.75 80.21 186.1 83.77 186.34 87.55 186.58 91.6 186.7 95.91 186.81 100.27 186.81 104.84 186.69 119.49 186.46 129.12 186.34 133.76 186.34 138.59 186.46 143.02 186.58 147.42 186.81 147.46 186.82 151.51 187.06 151.56 187.06 155.41 187.55 155.45 187.55 158.83 188.15 160.74 188.43 161 188.59 162.16 188.88 163.86 189.26 163.98 189.31 165.15 189.77 166.67 190.29 166.82 190.38 167.43 190.74 167.55 190.74 167.88 190.9 168.94 191.4 168.94 151.54 166.68 151.68 157.08 152.27"/><path class="cls-15" d="M300.25,44.35A74.06,74.06,0,1,0,352.6,66,73.8,73.8,0,0,0,300.25,44.35Z"/><polygon class="cls-14" points="134.32 242.96 133.8 242.24 133.85 242.19 133.6 241.89 132.96 241.41 132.22 240.87 131.4 240.38 130.33 239.95 129.13 239.48 128.01 239.05 126.75 238.72 125.17 238.37 125.17 238.34 123.87 238.15 123.85 238.15 120.25 237.55 120.25 237.53 116.76 237.09 112.78 236.85 108.41 236.62 104.36 236.51 99.46 236.39 94.9 236.39 85.05 236.51 70.72 236.74 66.08 236.86 61.39 236.86 57.18 236.74 52.98 236.62 49.12 236.5 49.06 236.5 45.44 236.14 42.32 235.79 42.08 235.79 41.94 235.77 40.53 235.53 39.03 235.28 38.94 235.25 37.97 234.95 37.76 234.95 37.54 234.88 36.3 234.52 36.25 234.51 35.35 234.19 35.25 234.15 34.1 233.74 33.96 233.66 33.71 233.51 33.76 233.53 32.87 233.01 32.78 232.94 32.63 232.81 32.13 232.81 31.64 232.09 31.32 231.63 30.53 230.84 30.41 230.42 30.21 229.71 29.95 228.78 29.95 200.24 24.98 200.68 22.38 201.05 22.34 201.05 20.02 201.26 20.02 201.27 17.62 201.63 15.48 201.98 13.32 202.44 11.12 202.92 11.09 202.86 9.39 203.26 7.86 203.71 6.32 204.22 6.34 204.28 4.77 204.86 3.67 205.33 3.69 205.4 2.61 205.93 1.79 206.52 1.14 207.1 0.65 207.68 0.28 208.2 0.16 208.72 0.13 208.71 0 209.33 0 258.63 0.06 258.58 0.12 258.54 1.41 257.77 1.51 257.73 2.92 257.13 4.63 256.41 4.86 256.41 6.27 255.89 6.34 255.87 8.15 255.4 9.72 254.97 9.98 254.82 10.28 254.77 12.26 254.42 14.48 253.93 14.54 253.93 16.94 253.57 19.25 253.19 19.46 253.19 21.79 252.85 21.83 252.84 24.44 252.61 29.86 252.13 35.7 251.65 41.72 251.29 47.94 250.94 54.2 250.71 54.41 250.71 67.39 250.34 73.8 250.1 80.42 249.98 92.82 249.63 98.82 249.39 104.4 249.15 109.86 248.79 114.97 248.44 117.36 248.21 117.34 248.21 119.54 247.98 121.69 247.74 123.68 247.39 123.73 247.38 125.64 247.15 127.19 246.8 127.21 246.8 128.78 246.49 128.77 246.45 130.24 246.12 131.33 245.7 133.44 244.85 133.94 244.49 134.32 244.19 134.57 243.81 134.65 243.7 134.63 243.61 134.32 242.96"/><polygon class="cls-14" points="168.6 196.85 167.4 195.44 167.14 195.21 166.46 194.71 165.61 194.19 164.75 193.8 163.49 193.37 162.28 193 162.25 193 161.57 192.76 159.61 192.33 158.06 191.98 154.5 191.4 154.5 191.38 150.97 191.05 151.01 191.05 147.03 190.7 142.88 190.46 138.59 190.35 133.71 190.22 129.15 190.22 119.55 190.35 104.92 190.58 100.32 190.7 95.86 190.7 91.33 190.58 91.43 190.58 87.44 190.46 87.22 190.46 83.39 190.34 83.36 190.34 79.68 190.1 79.63 190.09 76.42 189.62 74.8 189.37 74.78 189.37 73.35 189.13 73.34 189.13 71.86 188.83 71.61 188.68 71.55 188.65 70.75 188.37 69.54 188 69.5 187.99 67.41 187.24 67.41 187.03 67.27 186.93 66.37 186.27 66.28 186.18 65.57 185.47 65.57 185.47 65 185.47 64.66 184.26 64.46 183.55 64.2 182.62 64.2 182 64.16 181.93 64.2 181.93 64.2 178.69 63.95 178.69 64.2 176.93 64.2 154.09 59.23 154.53 56.83 154.88 56.78 154.89 54.24 155.12 52.07 155.47 49.72 155.82 47.6 156.28 44.38 157.04 43.88 157.21 43.84 157.22 42.06 157.69 40.53 158.15 39.06 158.69 37.94 159.24 36.86 159.79 36.12 160.3 36.16 160.42 35.33 161.01 35 161.4 34.68 162.05 34.44 162.55 34.44 212.34 34.46 212.34 35.86 211.62 35.88 211.61 37.15 210.97 37.23 210.95 38.86 210.34 38.89 210.33 40.72 209.73 40.74 209.73 42.38 209.23 42.43 209.23 44.46 208.75 44.47 208.74 46.67 208.26 48.92 207.78 48.96 207.77 51.2 207.41 51.18 207.42 53.63 207.04 53.68 207.04 56.24 206.81 58.85 206.45 64.3 205.97 69.93 205.5 75.96 205.13 82.22 204.78 82.44 204.78 88.63 204.54 101.65 204.19 114.68 203.83 120.86 203.71 127.06 203.47 133.06 203.23 138.84 202.99 144.19 202.64 149.22 202.29 151.61 202.05 151.58 202.05 153.78 201.81 155.93 201.58 157.93 201.22 157.97 201.22 159.89 200.99 161.44 200.65 161.46 200.65 163.02 200.33 163.02 200.3 164.49 199.97 165.64 199.52 165.71 199.49 166.79 199.17 167.53 198.82 168.53 198.08 168.82 197.65 168.89 197.55 168.86 197.42 168.6 196.85"/><path class="cls-14" d="M300.25,0a118.39,118.39,0,1,0,118.4,118.39A118,118,0,0,0,300.25,0Zm0,196.6a78.2,78.2,0,1,1,78.22-78.21A78,78,0,0,1,300.25,196.6Z"/><polygon class="cls-14" points="133.17 207.12 127.19 207.35 120.95 207.59 114.73 207.71 101.75 208.07 88.74 208.55 82.53 208.78 76.35 209.02 70.37 209.38 64.59 209.85 59.23 210.32 56.85 210.67 54.27 211.03 52.07 211.39 49.67 211.74 47.55 212.09 44.4 212.83 43.88 213 43.84 213.01 42.06 213.48 40.53 213.94 39.06 214.48 37.99 215.01 36.13 216.12 36.16 216.21 35.33 216.8 35 217.2 34.68 217.85 34.44 218.34 34.44 220.57 34.24 220.57 34.24 228.21 34.38 228.67 34.48 228.96 34.56 229.05 35.1 229.58 35.47 229.87 36.02 230.12 36.96 230.46 36.95 230.5 37.91 230.79 37.96 230.81 38.85 231.12 39.97 231.35 40.01 231.35 41.34 231.69 42.83 231.92 45.96 232.27 49.32 232.51 53.1 232.74 57.26 232.85 70.63 232.85 85.05 232.62 94.87 232.49 99.52 232.49 104.27 232.62 108.75 232.74 113 232.85 117.29 233.22 117.33 233.23 120.83 233.69 121.03 233.69 121.14 233.7 124.62 234.19 124.68 234.2 126.11 234.52 126.33 234.52 126.53 234.57 127.96 234.93 128 234.95 129.67 235.44 129.74 235.47 130.87 235.92 133.18 236.6 133.18 236.78 133.48 236.78 133.92 237.1 134.65 237.65 134.69 237.68 134.69 207.06 133.38 207.12 133.17 207.12"/><polygon class="cls-14" points="469.42 232.49 470.17 232.13 470.26 232.11 471.62 231.65 472.91 231.13 473.04 231.11 474.61 230.75 475.76 230.47 475.98 230.33 476.24 230.28 477.9 229.91 477.97 229.89 481.39 229.41 481.4 229.41 485.27 228.93 489.52 228.69 493.76 228.45 498.18 228.34 503.01 228.21 507.66 228.21 517.47 228.34 527.08 228.45 536.5 228.57 545.26 228.57 549.25 228.46 549.25 228.45 553.2 228.34 556.73 227.98 559.68 227.66 559.67 227.64 561.25 227.4 562.32 227.22 562.31 227.19 563.67 226.85 564.8 226.51 565.71 226.19 566.36 225.9 567.08 225.47 567.51 225.22 567.91 224.81 568.06 224.64 568.14 224.39 568.27 223.92 568.27 220.57 568.08 220.57 568.08 218.34 567.9 217.97 566.91 216.6 566.37 216.21 566.4 216.12 565.68 215.69 564.53 215.01 563.46 214.48 561.99 213.94 560.46 213.48 558.64 213 558.59 212.98 558.13 212.83 556.92 212.54 554.99 212.09 552.83 211.74 550.45 211.39 550.43 211.38 548.25 211.03 545.67 210.67 543.11 210.32 537.68 209.84 532.16 209.38 526.18 209.02 519.99 208.78 513.78 208.55 500.77 208.07 487.81 207.71 481.56 207.59 475.33 207.35 469.11 207.12 467.83 207.06 467.83 233.27 469.14 232.49 469.42 232.49"/><polygon class="cls-14" points="602.36 204.38 602.26 203.94 601.87 203.39 601.38 202.81 600.74 202.25 599.91 201.66 598.84 201.12 597.71 200.57 596.18 200 596.2 199.94 594.66 199.43 593.13 198.97 591.17 198.51 591.18 198.48 589.24 198.16 589.2 198.16 587.04 197.69 584.89 197.34 582.5 196.99 580.14 196.64 577.52 196.4 572.57 195.96 572.57 225.48 572.29 225.9 572.17 226.08 572.17 226.2 571.89 226.62 571.4 227.35 571.28 227.46 570.2 228.53 569.9 228.53 569.66 228.72 569.56 228.78 568.37 229.49 568.17 229.49 567.37 229.96 567 229.96 566.23 230.24 566.19 230.25 564.98 230.61 563.56 231.03 563.26 231.03 561.99 231.25 560.45 231.5 560.24 231.5 557.29 231.98 557.21 231.99 553.58 232.22 553.55 232.22 549.54 232.34 545.33 232.46 541.11 232.58 536.46 232.58 527.03 232.46 517.42 232.22 507.62 232.1 503.06 232.1 498.27 232.22 494.11 232.33 494.11 232.34 489.74 232.57 485.77 232.92 482.27 233.25 482.27 233.27 478.71 233.86 475.15 234.65 475.15 234.6 474.5 234.76 473.36 235.22 473.32 235.23 472.01 235.67 471.17 236.07 470.31 236.59 469.57 237.13 469.45 237.22 468.65 238.18 468.18 238.73 467.91 239.28 467.87 239.49 468 239.73 468.14 239.87 468.18 239.91 468.56 240.2 469.24 240.69 469.98 241.04 471.13 241.39 471.2 241.41 472.28 241.84 473.76 242.18 473.75 242.22 475.33 242.52 475.35 242.53 476.88 242.87 478.84 243.1 478.89 243.11 480.84 243.46 482.99 243.69 485.14 243.92 485.17 243.93 487.55 244.16 492.57 244.52 497.91 244.87 503.7 245.1 509.71 245.34 522.11 245.71 528.72 245.82 535.12 246.06 548.16 246.41 554.57 246.66 560.81 247.01 566.82 247.37 572.67 247.73 578.1 248.32 580.73 248.57 580.78 248.58 583.06 248.91 583.28 248.91 583.4 248.94 585.59 249.29 588.04 249.66 588.09 249.66 590.26 250.13 593.61 250.73 593.61 250.93 594.36 251.1 594.38 251.11 596.26 251.61 596.33 251.63 597.88 252.21 599.52 252.7 599.6 252.73 602.02 253.75 602.02 253.94 602.52 254.19 602.52 205.05 602.38 204.38 602.36 204.38"/><polygon class="cls-14" points="469.46 203.24 475.46 203.47 481.66 203.71 487.86 203.83 500.88 204.19 513.9 204.54 520.14 204.78 526.56 205.13 532.59 205.5 538.23 205.97 543.68 206.45 543.71 206.46 546.27 206.81 548.9 207.04 548.94 207.05 551.34 207.42 551.36 207.42 553.61 207.78 553.66 207.78 555.85 208.26 558.09 208.75 558.13 208.75 559.93 209.23 561.79 209.73 561.83 209.74 563.66 210.34 563.69 210.35 565.37 210.97 565.45 211.01 566.7 211.64 566.76 211.67 568.02 212.42 568.08 212.46 568.08 162.55 567.9 162.18 566.92 160.81 566.37 160.42 566.4 160.3 565.67 159.79 564.59 159.24 563.46 158.69 561.99 158.15 560.46 157.69 558.64 157.21 558.59 157.19 558.14 157.04 556.92 156.76 554.93 156.28 552.81 155.82 550.45 155.47 550.43 155.47 548.29 155.12 545.71 154.88 545.67 154.88 543.11 154.53 538.33 154.11 538.33 182.62 538.27 182.84 537.53 185.47 536.96 185.47 536.96 185.47 536.83 185.59 536.16 186.26 536.05 186.34 535.12 187.02 535.12 187.24 534.02 187.63 533.25 187.91 533.03 188.13 533.03 187.99 532.98 188 532.94 188.02 531.78 188.36 530.97 188.65 530.66 188.83 530.39 188.89 529.18 189.13 529.14 189.13 527.73 189.37 527.71 189.37 526.11 189.62 522.83 190.1 522.77 190.1 519.14 190.34 519.11 190.35 515.27 190.46 515.08 190.46 511.09 190.58 506.66 190.7 502.21 190.7 497.6 190.58 482.99 190.35 473.37 190.22 468.61 190.22 464.03 190.35 459.65 190.46 455.5 190.7 451.52 191.05 447.77 191.4 444.48 191.98 440.96 192.76 440.21 193.02 440.16 193.03 438.86 193.37 437.8 193.78 436.92 194.19 436.06 194.71 435.38 195.21 434.32 196.16 434.3 196.18 434 196.72 433.66 197.41 433.63 197.55 433.99 198.08 434.32 198.32 434.99 198.82 435.73 199.17 436.81 199.49 436.8 199.56 437.99 199.96 439.5 200.3 439.5 200.34 440.89 200.65 442.61 200.99 444.6 201.22 444.64 201.23 446.6 201.58 448.74 201.81 450.93 202.05 453.31 202.29 458.29 202.64 463.67 202.99 469.46 203.23 469.46 203.24"/><path class="cls-14" d="M445.29,148.4l9.22.71,9,.84,8.81,1,8.26,1,4,.6,4,.6,7.43,1.31,3.63.6h0l3.44.72h0l3.43.84h0l3,.82,3.25.72.08,0,2.78.95,2.36.75h.26l.29.11,2.41,1,2.46,1,.05,0,1.86.91h.27l.38.23,1.77,1,2.08,1.11.1.07,1.64,1.23,0,0,1.45,1.23,0,0,.41.4V123.51l-.16-1.18-.33-1.08-1.08-2.35-.45-.58-.29-.3-1.12-1.11-1.51-1.12,0-.12-.58-.43-.73-.43-1.76-1.05-1.92-1-2.12-.92-4.74-1.88-2.73-.93-2.77-.82-3-.82-2.95-.7L502.1,106l-3.41-.71-3.37-.71-7.58-1.3-3.76-.58-4-.48-8.22-1.07-8.76-.95-8.8-.83L445,98.63,435.44,98l-9.59-.59-4.9-.24a121.85,121.85,0,0,1-1.5,49.67l6.76.34,9.63.47Z"/><polygon class="cls-14" points="434.97 190.74 435.09 190.74 435.81 190.31 435.94 190.26 437.18 189.77 437.21 189.76 438.68 189.26 438.75 189.24 440.16 188.88 440.19 188.88 440.51 188.81 440.51 188.59 441.9 188.38 443.5 188.14 447.12 187.54 447.16 187.54 451.01 187.06 451.06 187.06 455.02 186.82 459.33 186.58 459.55 186.58 463.94 186.46 468.57 186.34 473.41 186.34 482.98 186.46 497.67 186.69 502.25 186.81 506.62 186.81 510.92 186.7 511 186.69 514.98 186.58 518.68 186.35 518.75 186.34 522.32 186.1 525.44 185.75 526.79 185.53 528.13 185.3 529.46 184.96 529.48 185.02 530.36 184.75 531.24 184.44 532.08 184.04 532.64 183.72 533.12 183.43 533.31 183.13 533.38 183.16 533.71 182.66 533.99 182.25 534.03 182.13 534.03 178.69 533.63 178.69 533.63 177.16 533.47 175.97 533.14 174.89 532.57 173.66 532.56 173.64 532.15 172.66 531.6 171.96 531.32 171.67 530.2 170.56 528.69 169.44 528.73 169.32 528.14 168.89 527.43 168.47 525.66 167.41 523.75 166.39 521.57 165.45 521.58 165.46 519.25 164.41 516.92 163.61 514.15 162.67 511.38 161.84 508.43 161.03 505.48 160.33 502.1 159.62 498.69 158.91 495.32 158.19 487.75 156.89 483.98 156.31 480.02 155.84 471.79 154.77 463.02 153.81 454.23 152.98 445.05 152.27 435.44 151.68 433.58 151.56 433.58 191.4 433.63 191.37 434.97 190.74"/><path class="cls-16" d="M350,37.92l-.6.77a8.79,8.79,0,0,0-1.19,2,8,8,0,0,0-.55,2.26,7.74,7.74,0,0,0,.12,2.32,8.09,8.09,0,0,0,.8,2.23h0a10.87,10.87,0,0,0,1.47,2.1,16.65,16.65,0,0,0,2.09,2h0a12.69,12.69,0,0,0,2,1.33h0a10.48,10.48,0,0,0,2.16.83h0a8.38,8.38,0,0,0,2.17.26,7.27,7.27,0,0,0,2.11-.34,7.18,7.18,0,0,0,1.83-.89,7,7,0,0,0,1.47-1.35,6.77,6.77,0,0,0,1-1.67,6.22,6.22,0,0,0,.46-1.86,6.42,6.42,0,0,0-.15-2,9.41,9.41,0,0,0-.73-2h0a16.88,16.88,0,0,0-1.12-1.79c-.51-.73-1.12-1.55-1.86-2.48a23.92,23.92,0,0,1-1.63-2.28,3.79,3.79,0,0,1-.54-1.15v0l0-.62.31-.58h0l.62-.48a2.33,2.33,0,0,1,.94-.17,3.05,3.05,0,0,1,1.21.32,8.06,8.06,0,0,1,1.68,1.09h0a7.12,7.12,0,0,1,1.35,1.37,3.28,3.28,0,0,1,.56,1.21h0a2.8,2.8,0,0,1,0,1.2,4.55,4.55,0,0,1-.62,1.39l-.54.84.82.57,2.27,1.57.82.57.6-.8a8.29,8.29,0,0,0,1-1.83,7.49,7.49,0,0,0,.49-2h0a6.56,6.56,0,0,0-.12-2.1,7.57,7.57,0,0,0-.76-2h0a10.78,10.78,0,0,0-1.3-1.88,13.81,13.81,0,0,0-1.78-1.71h0A12.13,12.13,0,0,0,365,30.86a11.08,11.08,0,0,0-2-.84h0a7.37,7.37,0,0,0-2.08-.32h0a6.28,6.28,0,0,0-2,.3,6.73,6.73,0,0,0-1.73.84,6.5,6.5,0,0,0-2.3,2.76,6,6,0,0,0-.44,1.63h0A6.11,6.11,0,0,0,354.5,37a7.74,7.74,0,0,0,.55,1.78,11.73,11.73,0,0,0,.95,1.7q.63,1,1.58,2.2c.59.77,1.09,1.43,1.49,2h0c.36.5.61.88.76,1.14h0a5.06,5.06,0,0,1,.46,1l.12.7h0l-.1.57-.32.55-.49.43-.62.27h0l-.75.07a4.27,4.27,0,0,1-1-.2h0a5.91,5.91,0,0,1-1.08-.48,8.1,8.1,0,0,1-1.13-.78,8.5,8.5,0,0,1-1.13-1.09,6.63,6.63,0,0,1-.78-1.17,5.45,5.45,0,0,1-.44-1.14,2.92,2.92,0,0,1-.07-1,3.56,3.56,0,0,1,.23-1,6.2,6.2,0,0,1,.59-1.16l.54-.85L353,40l-2.25-1.52-.8-.55"/><polyline class="cls-16" points="232.32 60.43 233.04 61.18 233.79 60.46 235.85 58.47 236.6 57.74 229.77 50.66 237.08 43.61 236.36 42.86 234.58 41.02 233.85 40.27 233.11 40.99 226.55 47.33 223.34 44 231.03 36.57 231.78 35.85 231.06 35.1 229.28 33.26 228.56 32.51 227.82 33.23 217.3 43.38 216.56 44.1 217.27 44.85 232.32 60.43"/><polyline class="cls-16" points="213.39 94.02 214.36 94.4 215.76 90.75 216.13 89.78 215.16 89.41 206.6 86.12 209.89 77.56 218.45 80.84 219.43 81.21 219.8 80.24 220.82 77.56 221.19 76.6 220.22 76.22 199.03 68.09 198.67 69.06 197.64 71.74 197.26 72.7 198.24 73.08 205.57 75.89 202.28 84.47 194.95 81.65 193.97 81.28 193.6 82.24 192.57 84.92 192.2 85.89 193.17 86.26 213.39 94.02"/><polyline class="cls-16" points="366.34 65 366.96 65.82 368.69 68.11 369.31 68.94 370.14 68.32 387.44 55.28 388.27 54.66 387.64 53.83 385.92 51.54 385.29 50.71 384.46 51.34 367.17 64.37 366.34 65"/><path class="cls-16" d="M395.72,86.52a15.93,15.93,0,0,0-3.38.43,16.32,16.32,0,0,0-3.05,1,15.5,15.5,0,0,0-2.73,1.57,10.68,10.68,0,0,0-2.21,2.11,9.3,9.3,0,0,0-1.43,2.56,9.41,9.41,0,0,0-.54,3,14,14,0,0,0,.39,3.43,11.12,11.12,0,0,0,1.28,3.24,9.29,9.29,0,0,0,2.17,2.5h0a9.51,9.51,0,0,0,3,1.59,12.42,12.42,0,0,0,3.61.58l1,0,0-1,.06-3,0-1.08-1.08,0a7.88,7.88,0,0,1-2.24-.26,4.83,4.83,0,0,1-1.65-.8h0a4.83,4.83,0,0,1-1.18-1.3,5.8,5.8,0,0,1-.7-1.77,6.47,6.47,0,0,1-.16-1.65,6.11,6.11,0,0,1,.3-1.61,4.59,4.59,0,0,1,.74-1.41h0a5.58,5.58,0,0,1,1.28-1.19,10.55,10.55,0,0,1,1.86-1,15.23,15.23,0,0,1,2.31-.73,12.85,12.85,0,0,1,1.93-.28,11.92,11.92,0,0,1,1.94,0h0A5.21,5.21,0,0,1,399,92h0a5.25,5.25,0,0,1,1.41.9,5.06,5.06,0,0,1,1.08,1.35,7.29,7.29,0,0,1,.7,1.9,6,6,0,0,1,.16,1.7,3.89,3.89,0,0,1-.34,1.4h0a4,4,0,0,1-.87,1.24,7.7,7.7,0,0,1-1.58,1.2l-.83.49.43.86,1.28,2.6.48,1,1-.53a10.76,10.76,0,0,0,2.57-2,8.75,8.75,0,0,0,1.71-2.58,9,9,0,0,0,.74-3h0a11.29,11.29,0,0,0-.3-3.31,12.4,12.4,0,0,0-1-2.85,11.59,11.59,0,0,0-1.67-2.43h0a9.71,9.71,0,0,0-2.28-1.9,10.35,10.35,0,0,0-2.79-1.14,12.15,12.15,0,0,0-3.15-.36"/><polyline class="cls-16" points="225.68 71 226.23 70.12 225.34 69.56 222.77 67.96 221.89 67.41 221.35 68.29 219.73 70.86 219.19 71.74 220.07 72.3 222.64 73.9 223.52 74.45 225.68 71"/><polyline class="cls-16" points="371.4 70.89 371.85 71.82 373.06 74.29 373.52 75.23 374.45 74.78 386.66 68.81 378.08 83.54 377.8 84.02 378.04 84.52 379.33 87.16 379.79 88.1 380.73 87.64 400.19 78.15 401.12 77.69 400.67 76.75 399.46 74.29 399 73.35 398.07 73.8 385.87 79.76 394.44 65.04 394.72 64.56 394.48 64.06 393.19 61.42 392.73 60.48 391.8 60.94 372.33 70.43 371.4 70.89"/><polyline class="cls-16" points="245.78 47.72 246.32 48.62 247.2 48.08 261.06 39.76 261.95 39.22 261.42 38.33 260.1 36.14 259.56 35.25 258.68 35.78 248.16 42.09 245.44 37.56 254.81 31.93 255.71 31.39 255.18 30.5 253.87 28.32 253.33 27.43 252.44 27.96 243.06 33.6 240.72 29.7 250.79 23.64 251.68 23.11 251.15 22.22 249.29 19.14 248.4 19.68 234.98 27.73 234.09 28.27 245.78 47.72"/><path class="cls-16" d="M325.81,36l.95.44,2.6,1.21.94.44.44-.95,3.63-7.77,2.07,1c.34.16.6.29.78.39l.42.25.36.35.33.46h0l.28.6a8.87,8.87,0,0,1,.3,1h0q.13.57.29,1.47c.11.6.21,1.28.31,2h0l.69,5.29.07.57.52.24,3.27,1.53,1.71.8-.25-1.88-.92-6.93v0a20.28,20.28,0,0,0-.41-2,14.48,14.48,0,0,0-.53-1.64l.59,0a6.71,6.71,0,0,0,2.67-.44,6.34,6.34,0,0,0,2.1-1.34A7,7,0,0,0,350.49,29h0a7.64,7.64,0,0,0,.6-1.91,7.17,7.17,0,0,0,.05-2h0a6.17,6.17,0,0,0-.52-1.89h0a5.56,5.56,0,0,0-1.08-1.59,9.44,9.44,0,0,0-1.69-1.34A21.77,21.77,0,0,0,345.49,19l-8.7-4.05-.95-.44-.44.95-9.15,19.62-.44.94m12.62-15.37,5.27,2.45a6.76,6.76,0,0,1,1.55,1,2.45,2.45,0,0,1,.71.9h0a2.16,2.16,0,0,1,.2.94,2.46,2.46,0,0,1-.25,1h0l-.4.6-.55.47-.64.27-.8,0h0a5.26,5.26,0,0,1-1.09-.23,12.35,12.35,0,0,1-1.5-.6h0l-4.64-2.17Z"/><polyline class="cls-16" points="322.88 35.44 323.9 35.64 324.1 34.61 324.59 32.1 324.79 31.09 323.76 30.89 311.74 28.55 312.74 23.35 323.48 25.44 324.5 25.64 325.19 22.12 325.38 21.11 324.36 20.9 313.63 18.82 314.49 14.35 326.03 16.6 327.05 16.79 327.25 15.77 327.73 13.26 327.94 12.24 326.91 12.04 311.54 9.05 310.53 8.85 310.32 9.88 306.2 31.14 306 32.16 307.02 32.36 322.88 35.44"/><path class="cls-16" d="M284.31,31.74l0,1,1,0,7.81-.27a18,18,0,0,0,2-.16,13.8,13.8,0,0,0,1.76-.36,9.42,9.42,0,0,0,1.54-.57,7.53,7.53,0,0,0,1.34-.77h0a7.69,7.69,0,0,0,1.14-1,10.36,10.36,0,0,0,1-1.28h0a9.85,9.85,0,0,0,.87-1.62,13.92,13.92,0,0,0,.64-1.9,13.58,13.58,0,0,0,.39-2.23,18.93,18.93,0,0,0,.07-2.46h0a17.12,17.12,0,0,0-.33-2.89,13.61,13.61,0,0,0-.77-2.59h0a10.39,10.39,0,0,0-1.25-2.23,9.65,9.65,0,0,0-1.75-1.79,8,8,0,0,0-1.71-1h0a8.94,8.94,0,0,0-2-.61h0a12.3,12.3,0,0,0-1.8-.19c-.66,0-1.43,0-2.3,0h0L284.56,9l-1,0,0,1,.75,21.64m7.81-18.34h0a18.19,18.19,0,0,1,2.09,0,5.35,5.35,0,0,1,1.26.22,3.83,3.83,0,0,1,1.19.68,5.91,5.91,0,0,1,1.09,1.26h0a6.11,6.11,0,0,1,.76,1.86,13.65,13.65,0,0,1,.36,2.77,17.4,17.4,0,0,1-.06,2.14,9.3,9.3,0,0,1-.32,1.73,7.57,7.57,0,0,1-.55,1.37,4.65,4.65,0,0,1-.71,1h0l-.61.5a4.59,4.59,0,0,1-.88.42,6,6,0,0,1-1.23.3,15.88,15.88,0,0,1-1.78.16l-3.59.13-.5-14.46Z"/><path class="cls-16" d="M263.32,37.48l.29,1,1-.29L272.12,36c.65-.19,1.28-.4,1.86-.64a13.17,13.17,0,0,0,1.62-.78,10.16,10.16,0,0,0,1.36-.92,7.8,7.8,0,0,0,1.1-1.08,7.92,7.92,0,0,0,.86-1.26,9.18,9.18,0,0,0,.67-1.48h0a9.16,9.16,0,0,0,.45-1.78,14.36,14.36,0,0,0,.16-2,14.14,14.14,0,0,0-.15-2.26,19.48,19.48,0,0,0-.54-2.41,17.82,17.82,0,0,0-1-2.73,13.94,13.94,0,0,0-1.39-2.32,10.38,10.38,0,0,0-1.76-1.86,9.61,9.61,0,0,0-2.13-1.32,7.89,7.89,0,0,0-1.91-.59,9.09,9.09,0,0,0-2.06-.11,12.9,12.9,0,0,0-1.78.25c-.69.14-1.43.32-2.24.56l-7.17,2.05-1,.29.29,1,6,20.82m3.15-19.69a16.92,16.92,0,0,1,2-.47h0a5.46,5.46,0,0,1,1.28-.08,3.74,3.74,0,0,1,1.31.38,5.7,5.7,0,0,1,1.36.95,6.17,6.17,0,0,1,1.21,1.63,13.51,13.51,0,0,1,1,2.6,16.52,16.52,0,0,1,.46,2.08,10,10,0,0,1,.11,1.76h0A7.31,7.31,0,0,1,275,28.1a4.63,4.63,0,0,1-.44,1.14l-.47.64-.76.62h0a6.78,6.78,0,0,1-1.12.59h0a14.74,14.74,0,0,1-1.69.58l-3.44,1-4-13.9Z"/><polyline class="cls-16" points="390.01 111.86 388.97 111.93 385.95 112.14 384.91 112.22 384.98 113.25 385.19 116.28 385.26 117.31 386.3 117.24 389.32 117.03 390.37 116.96 390.29 115.92 390.08 112.9 390.01 111.86"/><path class="cls-16" d="M205.32,109.46a4.35,4.35,0,0,1,.87.23l.42.28.32.42v0l.2.57,0,.74h0a2.57,2.57,0,0,1-.21.9l-.46.57a2.29,2.29,0,0,1-.91.35h0a8.73,8.73,0,0,1-1.88.12l-1.14,0,.08,1.13.17,2.61.05.89.89.07a10.42,10.42,0,0,0,3.17-.16,6.11,6.11,0,0,0,2.54-1.17h0a5.76,5.76,0,0,0,1.65-2.14,8.23,8.23,0,0,0,.68-2.84,8.84,8.84,0,0,0-.09-2,7.08,7.08,0,0,0-.56-1.86h0a5.84,5.84,0,0,0-1.06-1.58,5.67,5.67,0,0,0-1.52-1.14,8.3,8.3,0,0,0-2-.71,16.58,16.58,0,0,0-2.56-.36l-14.72-1-1-.07-.08,1-.2,2.86-.08,1,1,.07,14.89,1a13.48,13.48,0,0,1,1.48.17"/><polyline class="cls-16" points="209.72 96.16 208.71 95.92 208.47 96.94 207.8 99.89 207.56 100.9 208.58 101.14 211.53 101.82 212.54 102.05 212.78 101.04 213.46 98.09 213.69 97.08 212.68 96.84 209.72 96.16"/><path class="cls-16" d="M346.26,204.28a16.12,16.12,0,0,0-1.56-2.94,12.43,12.43,0,0,0-2.06-2.36,10.66,10.66,0,0,0-2.53-1.7,10.52,10.52,0,0,0-2.9-.88h0a11.09,11.09,0,0,0-3.05,0h0a12.46,12.46,0,0,0-3,.8,11.88,11.88,0,0,0-3.91,2.49,10.54,10.54,0,0,0-2.47,3.73A10.92,10.92,0,0,0,324,208a15.75,15.75,0,0,0,1.2,5.06,13.43,13.43,0,0,0,3.44,4.93,10.75,10.75,0,0,0,2.52,1.71,10.47,10.47,0,0,0,2.9.91,10.82,10.82,0,0,0,3.09.07,12.22,12.22,0,0,0,3.09-.81,11.62,11.62,0,0,0,2.63-1.46,12,12,0,0,0,2.17-2.06h0a9.87,9.87,0,0,0,1.54-2.61,10.65,10.65,0,0,0,.7-3,12.83,12.83,0,0,0-.12-3.2,15.47,15.47,0,0,0-.92-3.24m-4.2,7.89a5.85,5.85,0,0,1-1.32,2.1,6.57,6.57,0,0,1-2.18,1.4,6.37,6.37,0,0,1-2.5.49,6.06,6.06,0,0,1-2.41-.58,6.22,6.22,0,0,1-2.12-1.62,9.73,9.73,0,0,1-1.62-2.75,13.44,13.44,0,0,1-1-3.78,5.38,5.38,0,0,1,.4-2.7,6.57,6.57,0,0,1,5.22-3.81,6,6,0,0,1,1.71.06h0a5.64,5.64,0,0,1,1.59.55,6.2,6.2,0,0,1,1.44,1,8.33,8.33,0,0,1,1.28,1.56,11.62,11.62,0,0,1,1,2,11.09,11.09,0,0,1,.83,3.31A6.35,6.35,0,0,1,342.06,212.16Z"/><path class="cls-16" d="M226.9,175.88A10.52,10.52,0,0,0,228,173h0a10.33,10.33,0,0,0,.27-3,10.76,10.76,0,0,0-.6-3,12.61,12.61,0,0,0-4.66-6.11,10.51,10.51,0,0,0-4.16-1.63,10.9,10.9,0,0,0-4.66.25,15.67,15.67,0,0,0-4.7,2.24,12.82,12.82,0,0,0-2.3,2h0a13.32,13.32,0,0,0-1.79,2.42,10.83,10.83,0,0,0-1.15,2.82,10.65,10.65,0,0,0-.29,3,10.93,10.93,0,0,0,.57,3,12.39,12.39,0,0,0,1.44,2.85,11.9,11.9,0,0,0,4.44,4,10.15,10.15,0,0,0,2.88,1,11.06,11.06,0,0,0,3.09.06,12.66,12.66,0,0,0,3.11-.79,15,15,0,0,0,3-1.58,15.27,15.27,0,0,0,2.54-2.13,12.52,12.52,0,0,0,1.89-2.52m-3.49-4.16a6.2,6.2,0,0,1-.72,1.62,8.36,8.36,0,0,1-1.26,1.56,11.53,11.53,0,0,1-1.76,1.44,10.73,10.73,0,0,1-3.07,1.5h0a6.4,6.4,0,0,1-2.72.21h0a5.83,5.83,0,0,1-2.33-.86,6.37,6.37,0,0,1-1.82-1.84,6.24,6.24,0,0,1-1-2.34,6,6,0,0,1,.06-2.49,6.27,6.27,0,0,1,1.15-2.4,9.75,9.75,0,0,1,2.36-2.16,13.21,13.21,0,0,1,3.49-1.76,5.53,5.53,0,0,1,2.72-.18,6.26,6.26,0,0,1,4,2.74,6.37,6.37,0,0,1,.78,1.58,5.66,5.66,0,0,1,.1,3.35Z"/><path class="cls-16" d="M283.06,211.32a6.93,6.93,0,0,1,.56-.92l.74-.84a4.63,4.63,0,0,1,.88-.66,6.29,6.29,0,0,1,1.15-.51h0a6,6,0,0,1,1.37-.29,9.59,9.59,0,0,1,1.67,0,7.72,7.72,0,0,1,1.35.22,6.16,6.16,0,0,1,1.17.45h0a5,5,0,0,1,.94.61l.62.69a4.89,4.89,0,0,1,.48,1,10,10,0,0,1,.4,1.37l.22,1,1-.2,2.63-.54,1-.21-.19-1a12.07,12.07,0,0,0-.6-2.21,8.88,8.88,0,0,0-.95-1.85,7.22,7.22,0,0,0-1.4-1.51,8.76,8.76,0,0,0-1.83-1.16,11.74,11.74,0,0,0-2.16-.79,14.56,14.56,0,0,0-2.41-.37,14.87,14.87,0,0,0-3.29.13,11.9,11.9,0,0,0-3,.88h0a9.59,9.59,0,0,0-2.59,1.71,10.47,10.47,0,0,0-2,2.52h0a14.63,14.63,0,0,0-1.28,3,15.22,15.22,0,0,0-.58,3.25,14.45,14.45,0,0,0,.14,3.28,12.65,12.65,0,0,0,.87,3.05,10,10,0,0,0,1.66,2.66,10.36,10.36,0,0,0,2.41,2,12.35,12.35,0,0,0,2.91,1.32,14.25,14.25,0,0,0,5.78.55,13.77,13.77,0,0,0,2.5-.51h0a15.51,15.51,0,0,0,2.43-1,18.59,18.59,0,0,0,2.38-1.4l.41-.29,0-.49.56-8,.07-1-1-.07-9.15-.62-1-.08-.08,1-.18,2.53-.07,1,1,.08,5.3.37-.17,2.5-.62.34a11.94,11.94,0,0,1-1.48.58h0a8.33,8.33,0,0,1-3.28.42,7.86,7.86,0,0,1-3.52-1.08,5.37,5.37,0,0,1-1.34-1.1,5.44,5.44,0,0,1-.93-1.5,7.34,7.34,0,0,1-.52-2,11.65,11.65,0,0,1-.05-2.46,10.88,10.88,0,0,1,.33-2,9.4,9.4,0,0,1,.69-1.85"/><path class="cls-16" d="M205.11,159.89l-.05-4v-1.08l-1.08.05a7.77,7.77,0,0,1-2.24-.18,5,5,0,0,1-1.67-.75,4.75,4.75,0,0,1-1.22-1.25,5.81,5.81,0,0,1-.77-1.75,5.92,5.92,0,0,1-.21-1.63h0a6,6,0,0,1,.24-1.62,4.41,4.41,0,0,1,.7-1.43A5.56,5.56,0,0,1,200,145a10.3,10.3,0,0,1,1.82-1,15,15,0,0,1,2.29-.8,11.41,11.41,0,0,1,3.85-.38h0a5.29,5.29,0,0,1,1.68.36,5.16,5.16,0,0,1,1.44.85,5,5,0,0,1,1.12,1.32,7.12,7.12,0,0,1,.77,1.87,5.89,5.89,0,0,1,.22,1.69,3.91,3.91,0,0,1-.29,1.41h0a4.07,4.07,0,0,1-.82,1.27,7.83,7.83,0,0,1-1.53,1.25l-.81.52,1.83,3.4.51,1,.94-.56a10.64,10.64,0,0,0,2.5-2.06,8.92,8.92,0,0,0,1.62-2.63,9,9,0,0,0,.63-3.07,11.46,11.46,0,0,0-.4-3.3,12.48,12.48,0,0,0-1.12-2.79h0a11.49,11.49,0,0,0-1.76-2.38,9.53,9.53,0,0,0-2.36-1.82,10.06,10.06,0,0,0-2.82-1h0a12.32,12.32,0,0,0-3.16-.25,15.6,15.6,0,0,0-3.36.54,16.48,16.48,0,0,0-3,1.12,15.15,15.15,0,0,0-2.67,1.67h0a11.12,11.12,0,0,0-2.14,2.18,9.25,9.25,0,0,0-1.34,2.61h0a9.36,9.36,0,0,0-.43,3,13.82,13.82,0,0,0,.52,3.41,11,11,0,0,0,1.38,3.19A9.09,9.09,0,0,0,197.4,158a9.43,9.43,0,0,0,3,1.5,12.86,12.86,0,0,0,3.62.45h1"/><polyline class="cls-16" points="321.73 203.41 321.62 202.37 320.59 202.47 303.52 204.26 302.49 204.38 302.97 208.99 304 208.88 310.06 208.24 312.06 227.24 313.09 227.13 315.94 226.83 316.97 226.72 316.86 225.69 314.98 207.72 321.07 207.08 322.1 206.98 321.99 205.94 321.73 203.41"/><polyline class="cls-16" points="273.33 200.79 272.36 200.42 271.99 201.39 267.12 214.07 263.35 197.46 263.23 196.91 262.71 196.72 259.96 195.67 259 195.29 258.63 196.26 250.87 216.48 250.49 217.45 251.46 217.83 254.03 218.81 254.99 219.18 255.37 218.21 260.24 205.51 264 222.14 264.13 222.68 264.65 222.88 267.39 223.93 268.36 224.31 268.74 223.34 276.49 203.11 276.87 202.15 275.89 201.78 273.33 200.79"/><polyline class="cls-16" points="248.84 189.8 247.75 188.74 245.64 186.71 245.13 186.21 244.47 186.53 229.34 193.77 228.86 194.01 229.07 193.54 235.95 178.31 236.26 177.65 235.72 177.14 233.49 174.98 232.41 173.94 231.82 175.33 222.81 196.74 222.53 197.39 223.04 197.89 225.16 199.92 225.67 200.42 226.31 200.12 247.46 190.43 248.84 189.8"/><polyline class="cls-16" points="255.16 192.78 254.27 192.22 250.97 190.16 250.41 191.04 238.94 209.41 238.39 210.29 239.28 210.84 241.71 212.35 242.58 212.91 243.13 212.03 254.61 193.66 255.16 192.78"/><polyline class="cls-16" points="359.13 181 358.5 180.17 357.67 180.8 355.48 182.45 354.64 183.08 355.27 183.91 363.44 194.75 347.36 189.15 346.83 188.96 346.39 189.3 344.04 191.06 343.21 191.69 343.84 192.52 356.87 209.82 357.5 210.65 358.33 210.02 360.52 208.37 361.35 207.74 360.73 206.91 352.55 196.06 368.64 201.67 369.16 201.86 369.61 201.52 371.95 199.75 372.78 199.13 372.16 198.3 359.13 181"/><path class="cls-16" d="M393.47,150.93l-7.72-12.69-1-1.69-.81,1.81-1.36,3.05-.23.51.3.47,4.11,6.42c.46.71.91,1.39,1.33,2l.19.29-.34,0h0c-.64.08-1.37.18-2.17.3h0l-7.7,1.25-.56.09-.22.52-1.42,3.18-.79,1.78.32-.05L373.28,161l-.2.77,1.76,12.57-7.41-5.58-.62.84-1.73,2.29-.62.83.83.62,17.3,13,.83.62.63-.83,1.73-2.29.62-.83-6.47-4.88-.42-3.26,12.18.4.54,0,.32-.43,2.28-3,1.24-1.63-2.06,0L378.92,170l-1.43-11.64-1.2-.32.67-.12,14.5-2.49,8.09,3.6.95.43.43-1,1.17-2.62.43-.95-.95-.42-8.09-3.6"/><polyline class="cls-16" points="406.51 138.31 403.56 137.58 402.56 137.33 402.31 138.34 401.57 141.28 401.33 142.28 402.34 142.54 405.28 143.27 406.29 143.52 406.54 142.51 407.28 139.57 407.52 138.57 406.51 138.31"/><path class="cls-16" d="M378.4,196l-2.29-2.19-2.19,2.3,2.3,2.19,1.09-1.14a4.91,4.91,0,0,1,1.24,1.84,2.66,2.66,0,0,1-.08,1.72l1.4.26a4,4,0,0,0,.15-2.57A5.63,5.63,0,0,0,378.4,196"/><polyline class="cls-16" points="93.97 133.91 106.26 132.39 106.26 126.6 93.97 128.1 93.97 122.3 107.22 120.67 107.22 114.56 86.77 117.07 86.77 148.32 107.61 145.77 107.61 139.25 93.97 140.93 93.97 133.91"/><path class="cls-16" d="M129.59,125.06a25.46,25.46,0,0,0-7.31-1.88,5.26,5.26,0,0,1-2.84-.94h0a2.11,2.11,0,0,1-.68-1.55,3.15,3.15,0,0,1,.78-2.1,3.45,3.45,0,0,1,2.3-1.11l.66,0a3.26,3.26,0,0,1,2.26.8,5,5,0,0,1,1.26,2.84l6.78-1.33c-.36-3-1.33-5.13-2.87-6.3a8.16,8.16,0,0,0-5.08-1.44,17.47,17.47,0,0,0-2.13.14,14.11,14.11,0,0,0-6.14,2,9.44,9.44,0,0,0-3.31,3.73,10.39,10.39,0,0,0-1.11,4.64,7.44,7.44,0,0,0,2.12,5.64c1.39,1.35,3.8,2.34,7.22,2.87,2.15.34,3.53.77,4.24,1.46a3.24,3.24,0,0,1,1,2.37,4,4,0,0,1-1,2.65,4.19,4.19,0,0,1-2.84,1.43l-.64,0a3.67,3.67,0,0,1-3.19-1.71,7.54,7.54,0,0,1-1-3.15l-6.83,1.37a11.93,11.93,0,0,0,2.72,7.12c1.21,1.36,3.21,2.09,6.08,2.09a21.53,21.53,0,0,0,2.63-.18,13.56,13.56,0,0,0,6-2,10.72,10.72,0,0,0,3.68-4.26,12.65,12.65,0,0,0,1.32-5.67,9.65,9.65,0,0,0-1-4.45,6.86,6.86,0,0,0-3.11-3"/><polyline class="cls-16" points="159.87 108.11 136.57 110.97 136.57 118.14 144.63 117.15 144.63 141.23 151.81 140.35 151.81 116.27 159.87 115.28 159.87 108.11"/><path class="cls-16" d="M436.93,116.24l.58-.47v21.75l6.47,1v-31.8l-5.32-.82a12,12,0,0,1-3.11,4.46A13.48,13.48,0,0,1,430,113v6.55a19,19,0,0,0,3.58-1.19,17,17,0,0,0,3.3-2.12"/><path class="cls-16" d="M453.41,126.28a8.68,8.68,0,0,0-1,4.43,12.74,12.74,0,0,0,1.08,5.23,9.38,9.38,0,0,0,3.14,3.9,14.38,14.38,0,0,0,6.06,2.09,15.66,15.66,0,0,0,2.36.18,12.53,12.53,0,0,0,1.61-.1,6.35,6.35,0,0,0,3-1.11,6.67,6.67,0,0,0,2-2.75,10,10,0,0,0,.85-4.19,10.68,10.68,0,0,0-1-4.54,9.51,9.51,0,0,0-3-3.64l-.4-.3.41-.28a7.06,7.06,0,0,0,2.19-2.23,7.4,7.4,0,0,0,.92-3.71,9.29,9.29,0,0,0-2.36-6.29c-1.56-1.79-4-3-7.36-3.48a12.23,12.23,0,0,0-1.93-.16,7,7,0,0,0-4,1.1,6.59,6.59,0,0,0-2.87,5.81,9.26,9.26,0,0,0,1,4.32,9,9,0,0,0,2.35,2.75l.5.41-.62.21a5.28,5.28,0,0,0-3,2.36M460.06,115a2.53,2.53,0,0,1,1.92-.84l.51,0a3.41,3.41,0,0,1,2.32,1.5,5.13,5.13,0,0,1,.89,3,4,4,0,0,1-.88,2.71,2.42,2.42,0,0,1-1.86.85l-.47,0a3.6,3.6,0,0,1-2.43-1.5,5,5,0,0,1-.9-3A4,4,0,0,1,460.06,115Zm-.21,12.84a2.82,2.82,0,0,1,2.19-1.1l.45,0a3.92,3.92,0,0,1,2.61,1.87,6.72,6.72,0,0,1,1.08,3.83,5.37,5.37,0,0,1-1.1,3.53,2.87,2.87,0,0,1-2.22,1.17l-.4,0a3.93,3.93,0,0,1-2.6-1.85,6.61,6.61,0,0,1-1.09-3.81A5.45,5.45,0,0,1,459.85,127.87Z"/><path class="cls-16" d="M488.92,121.45a42.88,42.88,0,0,0-5.64,10.39,55.45,55.45,0,0,0-2.57,12.3l6.36,1a52.08,52.08,0,0,1,1.33-9.22,38.33,38.33,0,0,1,3.51-9.17,25.77,25.77,0,0,1,4.47-5.87V115.3l-20-3.07V119l12.89,2-.33.48"/><path class="cls-16" d="M507.68,137.63a7.24,7.24,0,0,0,1.06.08,4.81,4.81,0,0,0,1.86-.35,7,7,0,0,0,2.48-1.9l.62.26c-.24,3.42-.57,5.61-1.08,6.71a2.93,2.93,0,0,1-2.61,2l-.44,0a2.83,2.83,0,0,1-1.85-1.14,6.27,6.27,0,0,1-.94-2.62l-6.29,0a14.57,14.57,0,0,0,1.62,4,9.41,9.41,0,0,0,2.82,2.92,11.74,11.74,0,0,0,4.67,1.57,12,12,0,0,0,1.74.14,7.34,7.34,0,0,0,6-2.8c1.85-2.27,2.84-6.27,2.83-12a28.47,28.47,0,0,0-1.37-9.57,13.24,13.24,0,0,0-3.61-5.66,11.63,11.63,0,0,0-6-2.51,12,12,0,0,0-1.9-.15,7.24,7.24,0,0,0-3.19.65,6.81,6.81,0,0,0-3.15,3.28,12.13,12.13,0,0,0-1.17,5.46,13.51,13.51,0,0,0,2.3,7.88,8.25,8.25,0,0,0,5.55,3.79m-.81-14.95a2.72,2.72,0,0,1,2.2-1.14l.48,0a4.06,4.06,0,0,1,2.79,2,8,8,0,0,1,1.11,4.42,6.27,6.27,0,0,1-1.08,4,2.91,2.91,0,0,1-2.3,1.17l-.52,0a3.83,3.83,0,0,1-2.66-2,8.48,8.48,0,0,1-1-4.44A6.66,6.66,0,0,1,506.87,122.69Z"/></g></g></svg>