<svg id="Layer_1" data-name="Layer 1" xmlns="http://www.w3.org/2000/svg" viewBox="0 0 512 453.41"><defs><style>.cls-1{fill:none;stroke-width:12px;}.cls-1,.cls-2{stroke:#000;stroke-miterlimit:10;}</style></defs><title>starkapps</title><ellipse id="circle4226" class="cls-1" cx="255.59" cy="212.51" rx="211.25" ry="206.51"/><path id="path4228" d="M522.14,218.41a82.4,82.4,0,0,0-18.83-22.68,109,109,0,0,0-23.47-14.94,12.21,12.21,0,0,1-2.73,4.8,11.64,11.64,0,0,1,1.09,8.54c.55.27.82.8,1.36,1.07,9.83,9.07,16.38,19.48,19.65,30.68,15.56,55.76-48.58,134.74-176.59,181.7-139.47,51-247.28,24.81-260.38-37.89a61.63,61.63,0,0,1-.82-21.34c1.64-15.47,8.46-31.22,19.11-46.69a12.76,12.76,0,0,1-4.09-3.47C58.7,319.8,47.23,341.94,44,363.82a95.69,95.69,0,0,0-.82,12.27c0,81.38,123.91,122.2,290.95,60.83C488.84,380.63,556.8,281.64,522.14,218.41Z" transform="translate(-19 -13.1)"/><path id="path4230" d="M506.31,364.09c-3.28-22.68-15.56-45.89-34.66-68.3a11.87,11.87,0,0,1-3.28,4c11.19,16.28,18.56,32.55,20.2,48.56a69.11,69.11,0,0,1-.82,21.34c-13.1,62.7-121.18,88.85-260.38,37.89-128.28-47-192.15-125.93-176.59-181.7,3-10.94,9.28-21.08,18.56-29.88a14.28,14.28,0,0,1-5.73-12,109.45,109.45,0,0,0-16.92,11.47,81.44,81.44,0,0,0-18.83,22.68c-34.66,63,33.3,162,188.32,218.78,167,61.1,290.95,20.54,290.95-60.83a95,95,0,0,0-.82-12Z" transform="translate(-19 -13.1)"/><path id="path4232" d="M277.32,392.37c-88.43,0-160.49-70.44-160.49-156.88,0-54.43,28.11-104.06,75.33-132.87a21.16,21.16,0,0,1,28.93,6.4c6.28,9.61,3.28,22.15-6.55,28.28-34.94,21.34-55.68,58.16-55.68,98.45,0,64,53.22,116.06,118.73,116.06s118.73-52,118.73-116.06c0-40.29-20.74-76.84-55.68-98.45-9.83-6.14-12.83-18.68-6.55-28.28a21.16,21.16,0,0,1,28.93-6.4c47.22,29.08,75.33,78.71,75.33,132.87-.55,86.45-72.6,156.88-161,156.88Z" transform="translate(-19 -13.1)"/><path id="path4234" class="cls-2" d="M279,179.19a20.22,20.22,0,0,1-20.47-20v-72a20.48,20.48,0,0,1,40.94,0v72A20.22,20.22,0,0,1,279,179.19Z" transform="translate(-19 -13.1)"/><ellipse id="circle4238" cx="211.92" cy="217.05" rx="22.38" ry="21.88"/><ellipse id="circle4240" cx="307.72" cy="217.05" rx="22.38" ry="21.88"/><path id="path4244" d="M220.28,285.38c1.36,48.83,112.72,49.89,113.81,0,.27-11.21-17.74-11.21-18,0-.55,25.88-77.24,24.28-77.79,0-.55-11.47-18.56-11.47-18,0h0Z" transform="translate(-19 -13.1)"/></svg>